Coordinates
version=1
nRows=10
nColumns=28
inDegrees=yes

Units are S.I. units (second, meters, Newtons, ...)
If the header above contains a line with 'inDegrees', this indicates whether rotational values are in degrees (yes) or radians (no).

endheader
time	pelvis_tilt	pelvis_list	pelvis_rotation	pelvis_tx	pelvis_ty	pelvis_tz	hip_flexion_r	hip_adduction_r	hip_rotation_r	knee_angle_r	knee_rotation_r	knee_adduction_r	ankle_angle_r	subtalar_angle_r	mtp_angle_r	hip_flexion_l	hip_adduction_l	hip_rotation_l	knee_angle_l	knee_rotation_l	knee_adduction_l	ankle_angle_l	subtalar_angle_l	mtp_angle_l	lumbar_extension	lumbar_bending	lumbar_rotation
      0.58000000	     10.21144480	      8.44558868	    -93.71562478	     -0.22381144	      0.95602088	     -0.11121322	     35.54057059	     -7.82129636	     22.78467756	    -17.60738791	      3.29890377	     -1.49493922	      8.53384442	     -8.30912587	      1.23566198	      8.11816013	     12.35770458	     16.93296358	    -17.42361946	      2.19339792	     -5.11699034	     24.13595622	     -7.21709564	     -6.43489265	      0.00000000	      0.00000000	      0.00000000
      0.59000000	     10.18169069	      8.76247192	    -93.40744178	     -0.22429583	      0.95448064	     -0.10109066	     35.40733169	     -7.98156275	     23.92511077	    -14.51971251	      2.63685516	     -1.48201808	      8.58899672	     -7.80284882	      1.28342048	      7.80839427	     12.25438576	     17.36444800	    -17.55318599	      2.35954409	     -5.33374986	     24.63139614	     -7.10993353	     -6.43029148	      0.00000000	      0.00000000	      0.00000000
      0.60000000	     10.36154270	      8.91652751	    -93.42390980	     -0.22529556	      0.95291523	     -0.09063026	     35.45251645	     -8.18888458	     25.17573973	    -12.02591021	      1.21287662	     -1.22885490	      8.56133040	     -6.65529902	      1.38401538	      7.27983075	     12.33111452	     17.21469016	    -17.51388408	      2.63268331	     -5.41063310	     25.13212857	     -6.34270830	     -6.29413447	      0.00000000	      0.00000000	      0.00000000
      0.61000000	     10.23940853	      8.91555092	    -93.08923212	     -0.22607207	      0.95179351	     -0.07963797	     35.34600456	     -8.28525635	     25.31063773	    -10.00319243	     -0.92014829	     -0.93961528	      9.16188791	     -4.04825031	      1.42377251	      6.57935758	     12.07525345	     17.04648541	    -17.64403347	      2.38286604	     -5.57136094	     25.54630033	     -5.95530727	     -6.10409689	      0.00000000	      0.00000000	      0.00000000
      0.62000000	     10.09737817	      8.78857792	    -93.06266871	     -0.22718704	      0.95082924	     -0.06841399	     35.15324003	     -8.32518836	     25.71128119	     -8.22849931	     -3.45956981	     -0.34853492	      9.30838273	     -1.37566926	      1.44976665	      5.72250101	     11.79010770	     16.11434436	    -17.71024185	      1.63871309	     -5.50888725	     25.90369278	     -5.55026698	     -5.93197430	      0.00000000	      0.00000000	      0.00000000
      0.63000000	     10.09409100	      8.66588727	    -92.52736349	     -0.22758768	      0.95008115	     -0.05726776	     35.24490945	     -8.60336202	     24.76010140	     -7.51462965	     -6.14408314	      0.09032083	     10.42167800	      2.83970145	      1.97605347	      4.85159038	     11.73655338	     16.53160649	    -17.77459349	      1.66150213	     -5.60794788	     26.05725404	     -5.20868108	     -5.71780649	      0.00000000	      0.00000000	      0.00000000
      0.64000000	      9.98995329	      8.39472607	    -92.19957931	     -0.22805216	      0.94945087	     -0.04548674	     35.11426422	     -8.61381973	     23.52232127	     -7.06473119	     -7.93397534	      0.36490144	     11.19037205	      6.25525727	      7.06729839	      3.84216302	     11.63806937	     16.16981014	    -17.96455967	      1.35877557	     -5.44067402	     26.22410897	     -4.74500754	     -4.15174183	      0.00000000	      0.00000000	      0.00000000
      0.65000000	      9.81520703	      8.20198139	    -91.64610059	     -0.22857610	      0.94890275	     -0.03358956	     35.01526622	     -8.54618031	     21.43388349	     -7.07183509	     -8.02109778	      0.51638405	     11.57123924	      7.68349297	      7.21018436	      2.89510872	     11.39065917	     16.28115863	    -18.12021289	      1.20528480	     -5.44978700	     26.34024042	     -4.44514824	     -4.06456820	      0.00000000	      0.00000000	      0.00000000
      0.66000000	      9.70637331	      7.97101210	    -91.08234868	     -0.22910548	      0.94846239	     -0.02146923	     34.93127220	     -8.43625289	     18.82025676	     -7.47575290	     -6.43148271	      0.51738420	     11.78283382	      7.41827415	      7.34252864	      1.97034034	     11.19862644	     16.26026560	    -18.41561747	      0.89220150	     -5.44218305	     26.33401956	     -4.02031718	     -3.88570317	      0.00000000	      0.00000000	      0.00000000
      0.67000000	      9.82282987	      7.84861438	    -90.69229099	     -0.23053778	      0.94764380	     -0.00949435	     35.00118541	     -8.22814249	     16.66486957	     -8.12419987	     -4.29490883	      0.20396023	     11.82993571	      5.99273035	      7.41660931	      1.25076273	     11.14806460	     16.21524384	    -18.80811520	      0.70096598	     -5.51574172	     26.13580121	     -3.65982130	     -3.67186280	      0.00000000	      0.00000000	      0.00000000
